<mxfile host="65bd71144e">
    <diagram name="Page-1" id="nxIxgLsQUE_wfLpYk2qr">
        <mxGraphModel dx="864" dy="662" grid="1" gridSize="10" guides="1" tooltips="1" connect="1" arrows="1" fold="1" page="1" pageScale="1" pageWidth="850" pageHeight="1100" background="#ffffff" math="0" shadow="0">
            <root>
                <mxCell id="0"/>
                <mxCell id="1" parent="0"/>
                <mxCell id="clVKZRl2E8a5SpooWiB2-3" value="Admin" style="shape=umlActor;verticalLabelPosition=bottom;verticalAlign=top;html=1;outlineConnect=0;" parent="1" vertex="1">
                    <mxGeometry x="780" y="460" width="30" height="60" as="geometry"/>
                </mxCell>
                <mxCell id="FlA3XcC-9kOmXt7GphnG-3" value="Usecase Admin" style="shape=umlFrame;whiteSpace=wrap;html=1;pointerEvents=0;recursiveResize=0;container=1;collapsible=0;width=160;" parent="1" vertex="1">
                    <mxGeometry x="190" y="190" width="480" height="670" as="geometry"/>
                </mxCell>
                <mxCell id="FlA3XcC-9kOmXt7GphnG-5" value="Tambah/edit/hapus akun pengguna" style="ellipse;whiteSpace=wrap;html=1;" parent="FlA3XcC-9kOmXt7GphnG-3" vertex="1">
                    <mxGeometry x="175" y="200" width="120" height="80" as="geometry"/>
                </mxCell>
                <mxCell id="4" value="" style="edgeStyle=none;html=1;" parent="FlA3XcC-9kOmXt7GphnG-3" source="HDgKTc870op2evVAtmKX-1" edge="1">
                    <mxGeometry relative="1" as="geometry">
                        <mxPoint x="240.60785151308414" y="325.000854334568" as="targetPoint"/>
                    </mxGeometry>
                </mxCell>
                <mxCell id="HDgKTc870op2evVAtmKX-5" value="Lihat Total Upload" style="ellipse;whiteSpace=wrap;html=1;" parent="FlA3XcC-9kOmXt7GphnG-3" vertex="1">
                    <mxGeometry x="175" y="440" width="120" height="80" as="geometry"/>
                </mxCell>
                <mxCell id="2" value="&amp;lt;&amp;lt;include&amp;gt;&amp;gt;" style="html=1;verticalAlign=bottom;labelBackgroundColor=none;endArrow=open;endFill=0;dashed=1;exitX=0.5;exitY=1;exitDx=0;exitDy=0;entryX=0.5;entryY=0;entryDx=0;entryDy=0;" parent="FlA3XcC-9kOmXt7GphnG-3" source="HDgKTc870op2evVAtmKX-1" edge="1">
                    <mxGeometry width="160" relative="1" as="geometry">
                        <mxPoint x="249" y="650" as="sourcePoint"/>
                        <mxPoint x="241" y="325" as="targetPoint"/>
                    </mxGeometry>
                </mxCell>
                <mxCell id="3" value="Login" style="ellipse;whiteSpace=wrap;html=1;" parent="FlA3XcC-9kOmXt7GphnG-3" vertex="1">
                    <mxGeometry x="175" y="100" width="120" height="80" as="geometry"/>
                </mxCell>
                <mxCell id="6" value="Kelola Dataset" style="ellipse;whiteSpace=wrap;html=1;" parent="FlA3XcC-9kOmXt7GphnG-3" vertex="1">
                    <mxGeometry x="175" y="540" width="120" height="80" as="geometry"/>
                </mxCell>
                <mxCell id="8" value="Menampilkan grafik klasifikasi" style="ellipse;whiteSpace=wrap;html=1;" vertex="1" parent="FlA3XcC-9kOmXt7GphnG-3">
                    <mxGeometry x="175" y="300" width="120" height="80" as="geometry"/>
                </mxCell>
                <mxCell id="11" value="&amp;lt;&amp;lt;include&amp;gt;&amp;gt;" style="html=1;verticalAlign=bottom;labelBackgroundColor=none;endArrow=open;endFill=0;dashed=1;exitX=0.5;exitY=1;exitDx=0;exitDy=0;entryX=0.5;entryY=0;entryDx=0;entryDy=0;" edge="1" parent="FlA3XcC-9kOmXt7GphnG-3" source="8" target="HDgKTc870op2evVAtmKX-5">
                    <mxGeometry width="160" relative="1" as="geometry">
                        <mxPoint x="220" y="360" as="sourcePoint"/>
                        <mxPoint x="380" y="360" as="targetPoint"/>
                    </mxGeometry>
                </mxCell>
                <mxCell id="HDgKTc870op2evVAtmKX-9" value="" style="endArrow=none;startArrow=none;endFill=0;startFill=0;endSize=8;html=1;verticalAlign=bottom;labelBackgroundColor=none;strokeWidth=3;rounded=0;exitX=1;exitY=0.5;exitDx=0;exitDy=0;entryX=0.5;entryY=0.5;entryDx=0;entryDy=0;entryPerimeter=0;" parent="1" source="FlA3XcC-9kOmXt7GphnG-5" target="clVKZRl2E8a5SpooWiB2-3" edge="1">
                    <mxGeometry width="160" relative="1" as="geometry">
                        <mxPoint x="510" y="320" as="sourcePoint"/>
                        <mxPoint x="800" y="420" as="targetPoint"/>
                    </mxGeometry>
                </mxCell>
                <mxCell id="HDgKTc870op2evVAtmKX-13" value="" style="endArrow=none;startArrow=none;endFill=0;startFill=0;endSize=8;html=1;verticalAlign=bottom;labelBackgroundColor=none;strokeWidth=3;rounded=0;exitX=1;exitY=0.5;exitDx=0;exitDy=0;entryX=0.5;entryY=0.5;entryDx=0;entryDy=0;entryPerimeter=0;" parent="1" source="8" target="clVKZRl2E8a5SpooWiB2-3" edge="1">
                    <mxGeometry width="160" relative="1" as="geometry">
                        <mxPoint x="510" y="480" as="sourcePoint"/>
                        <mxPoint x="800" y="480" as="targetPoint"/>
                    </mxGeometry>
                </mxCell>
                <mxCell id="5" value="" style="endArrow=none;startArrow=none;endFill=0;startFill=0;endSize=8;html=1;verticalAlign=bottom;labelBackgroundColor=none;strokeWidth=3;rounded=0;exitX=1;exitY=0.5;exitDx=0;exitDy=0;entryX=0.5;entryY=0.5;entryDx=0;entryDy=0;entryPerimeter=0;" parent="1" source="3" target="clVKZRl2E8a5SpooWiB2-3" edge="1">
                    <mxGeometry width="160" relative="1" as="geometry">
                        <mxPoint x="493" y="400" as="sourcePoint"/>
                        <mxPoint x="810" y="390" as="targetPoint"/>
                    </mxGeometry>
                </mxCell>
                <mxCell id="7" value="" style="endArrow=none;startArrow=none;endFill=0;startFill=0;endSize=8;html=1;verticalAlign=bottom;labelBackgroundColor=none;strokeWidth=3;rounded=0;exitX=1;exitY=0.4;exitDx=0;exitDy=0;entryX=0.5;entryY=0.5;entryDx=0;entryDy=0;entryPerimeter=0;exitPerimeter=0;" parent="1" source="6" target="clVKZRl2E8a5SpooWiB2-3" edge="1">
                    <mxGeometry width="160" relative="1" as="geometry">
                        <mxPoint x="493" y="715" as="sourcePoint"/>
                        <mxPoint x="805" y="500" as="targetPoint"/>
                    </mxGeometry>
                </mxCell>
                <mxCell id="10" value="" style="endArrow=none;startArrow=none;endFill=0;startFill=0;endSize=8;html=1;verticalAlign=bottom;labelBackgroundColor=none;strokeWidth=3;rounded=0;exitX=1;exitY=0.5;exitDx=0;exitDy=0;entryX=0.5;entryY=0.5;entryDx=0;entryDy=0;entryPerimeter=0;" edge="1" parent="1" source="HDgKTc870op2evVAtmKX-5" target="clVKZRl2E8a5SpooWiB2-3">
                    <mxGeometry width="160" relative="1" as="geometry">
                        <mxPoint x="500" y="772" as="sourcePoint"/>
                        <mxPoint x="805" y="500" as="targetPoint"/>
                    </mxGeometry>
                </mxCell>
            </root>
        </mxGraphModel>
    </diagram>
</mxfile>